# xmcd CD database file
#
# Track frame offsets:
#	150
#	15925
#	34509
#	47378
#	74266
#	90240
#	110902
#	127859
#	146303
#	161266
#	176454
#	192471
#	207587
#	245957
#	263260
#	285010
#	316210
#
# Disc length: 4424 seconds
#
# Revision: 1
# Processed by: cddbd v1.5PL3 Copyright (c) Steve Scherf et al.
# Submitted via: CDex 1.51
#
DISCID=d5114611
DTITLE=Blues Paradise - Good Whiskey Blues vol.14
DYEAR=2002
DGENRE=Blues
TTITLE0=The Kingsnake - Diving Duck Blues
TTITLE1=The Nighthawks - Shade Tree Mechanic
TTITLE2=The Juke Joints - What's Wrong With You
TTITLE3=Paul Oscher - Straw And Pipe
TTITLE4=The Solid Senders - She Likes Me Like A Devil
TTITLE5=S.R. Norcia and B.Branch - I Put My Babe Out
TTITLE6=The Juke Joints - Pleasw Babe Please
TTITLE7=The Nighthawks - The Soul Of Man
TTITLE8=S.R. Norcia and B.Branch - Mean Little Mama
TTITLE9=Paul Oscher - Knockin' On The Devil's Door
TTITLE10=The Juke Joints - Mississipi Groove
TTITLE11=The Kingsnake - Down On Love
TTITLE12=C. Mussel White and S.R. Norcia - Blues, Why Do You Worry Me?
TTITLE13=The Solid Senders - Black Cat
TTITLE14=The Juke Joints - You Promised My Love
TTITLE15=The Kingsnake - If You Can't Get What You Want
TTITLE16=Oscar Benton - I Feel So Good
EXTD=YEAR: 2002
EXTT0=
EXTT1=
EXTT2=
EXTT3=
EXTT4=
EXTT5=
EXTT6=
EXTT7=
EXTT8=
EXTT9=
EXTT10=
EXTT11=
EXTT12=
EXTT13=
EXTT14=
EXTT15=
EXTT16=
PLAYORDER=
